<mxfile host="app.diagrams.net" agent="Mozilla/5.0 (Windows NT 10.0; Win64; x64) AppleWebKit/537.36 (KHTML, like Gecko) Chrome/138.0.0.0 Safari/537.36" version="28.0.6">
  <diagram name="Page-1" id="b520641d-4fe3-3701-9064-5fc419738815">
    <mxGraphModel dx="1665" dy="743" grid="1" gridSize="10" guides="1" tooltips="1" connect="1" arrows="1" fold="1" page="1" pageScale="1" pageWidth="1100" pageHeight="850" background="none" math="0" shadow="0">
      <root>
        <mxCell id="0" />
        <mxCell id="1" parent="0" />
        <mxCell id="kD_gi0THU99JlVgYpv1k-6" style="edgeStyle=orthogonalEdgeStyle;rounded=0;orthogonalLoop=1;jettySize=auto;html=1;" edge="1" parent="1" source="kD_gi0THU99JlVgYpv1k-1" target="kD_gi0THU99JlVgYpv1k-5">
          <mxGeometry relative="1" as="geometry" />
        </mxCell>
        <mxCell id="kD_gi0THU99JlVgYpv1k-8" value="1. User Credentials" style="edgeLabel;html=1;align=center;verticalAlign=middle;resizable=0;points=[];" vertex="1" connectable="0" parent="kD_gi0THU99JlVgYpv1k-6">
          <mxGeometry y="-1" relative="1" as="geometry">
            <mxPoint x="-1" as="offset" />
          </mxGeometry>
        </mxCell>
        <mxCell id="kD_gi0THU99JlVgYpv1k-1" value="Actor" style="shape=umlActor;verticalLabelPosition=bottom;verticalAlign=top;html=1;outlineConnect=0;" vertex="1" parent="1">
          <mxGeometry x="255" y="260" width="50" height="90" as="geometry" />
        </mxCell>
        <mxCell id="kD_gi0THU99JlVgYpv1k-9" style="edgeStyle=orthogonalEdgeStyle;rounded=0;orthogonalLoop=1;jettySize=auto;html=1;entryX=0;entryY=0.5;entryDx=0;entryDy=0;" edge="1" parent="1" source="kD_gi0THU99JlVgYpv1k-5" target="kD_gi0THU99JlVgYpv1k-7">
          <mxGeometry relative="1" as="geometry" />
        </mxCell>
        <mxCell id="kD_gi0THU99JlVgYpv1k-12" value="2. Check Credentials" style="edgeLabel;html=1;align=center;verticalAlign=middle;resizable=0;points=[];" vertex="1" connectable="0" parent="kD_gi0THU99JlVgYpv1k-9">
          <mxGeometry x="-0.1571" y="-3" relative="1" as="geometry">
            <mxPoint as="offset" />
          </mxGeometry>
        </mxCell>
        <mxCell id="kD_gi0THU99JlVgYpv1k-5" value="Auth&lt;br&gt;Service" style="shape=process;whiteSpace=wrap;html=1;backgroundOutline=1;" vertex="1" parent="1">
          <mxGeometry x="465" y="275" width="120" height="60" as="geometry" />
        </mxCell>
        <mxCell id="kD_gi0THU99JlVgYpv1k-13" style="edgeStyle=orthogonalEdgeStyle;rounded=0;orthogonalLoop=1;jettySize=auto;html=1;exitX=0.5;exitY=1;exitDx=0;exitDy=0;entryX=0.5;entryY=1;entryDx=0;entryDy=0;" edge="1" parent="1" source="kD_gi0THU99JlVgYpv1k-7" target="kD_gi0THU99JlVgYpv1k-5">
          <mxGeometry relative="1" as="geometry">
            <Array as="points">
              <mxPoint x="815" y="400" />
              <mxPoint x="525" y="400" />
            </Array>
          </mxGeometry>
        </mxCell>
        <mxCell id="kD_gi0THU99JlVgYpv1k-14" value="3. Validation Result" style="edgeLabel;html=1;align=center;verticalAlign=middle;resizable=0;points=[];" vertex="1" connectable="0" parent="kD_gi0THU99JlVgYpv1k-13">
          <mxGeometry x="0.1048" relative="1" as="geometry">
            <mxPoint as="offset" />
          </mxGeometry>
        </mxCell>
        <mxCell id="kD_gi0THU99JlVgYpv1k-7" value="User DB" style="shape=datastore;whiteSpace=wrap;html=1;" vertex="1" parent="1">
          <mxGeometry x="785" y="275" width="60" height="60" as="geometry" />
        </mxCell>
        <mxCell id="kD_gi0THU99JlVgYpv1k-18" style="edgeStyle=orthogonalEdgeStyle;rounded=0;orthogonalLoop=1;jettySize=auto;html=1;exitX=0.5;exitY=0;exitDx=0;exitDy=0;entryX=0.5;entryY=0;entryDx=0;entryDy=0;entryPerimeter=0;" edge="1" parent="1" source="kD_gi0THU99JlVgYpv1k-5" target="kD_gi0THU99JlVgYpv1k-1">
          <mxGeometry relative="1" as="geometry">
            <Array as="points">
              <mxPoint x="525" y="190" />
              <mxPoint x="280" y="190" />
            </Array>
          </mxGeometry>
        </mxCell>
        <mxCell id="kD_gi0THU99JlVgYpv1k-19" value="4. Send Token if valid else return forbidden" style="edgeLabel;html=1;align=center;verticalAlign=middle;resizable=0;points=[];" vertex="1" connectable="0" parent="kD_gi0THU99JlVgYpv1k-18">
          <mxGeometry x="0.2" relative="1" as="geometry">
            <mxPoint x="30" as="offset" />
          </mxGeometry>
        </mxCell>
      </root>
    </mxGraphModel>
  </diagram>
</mxfile>
